<svg version="1.0" xmlns="http://www.w3.org/2000/svg"
 width="220.000000pt" height="58.000000pt" viewBox="0 0 220.000000 58.000000"
 preserveAspectRatio="xMidYMid meet">

<g transform="translate(0.000000,58.000000) scale(0.100000,-0.100000)"
fill="#163a67" stroke="none">
<path d="M1925 546 c-40 -17 -84 -63 -101 -103 -17 -39 -18 -111 -3 -150 6
-15 11 -56 12 -91 l2 -63 60 6 c96 10 177 33 219 63 121 84 107 265 -25 332
-44 23 -119 26 -164 6z m179 -34 c114 -80 100 -245 -26 -306 -55 -27 -136 -46
-194 -46 -32 0 -34 2 -34 36 0 19 -7 67 -16 106 -19 83 -11 127 33 179 61 73
160 86 237 31z" fill="#163a67"/>
<path d="M1996 393 c-10 -32 -21 -64 -24 -72 -3 -8 0 -12 8 -9 19 6 63 138 46
138 -7 0 -20 -26 -30 -57z" fill="#163a67"/>
<path d="M1905 405 l-29 -24 29 -31 c16 -16 32 -30 37 -30 16 0 7 26 -13 38
l-21 13 21 23 c39 41 23 49 -24 11z" fill="#163a67"/>
<path d="M2060 422 c0 -5 9 -17 20 -27 l20 -18 -22 -24 c-33 -35 -13 -40 26
-5 l35 30 -34 26 c-36 28 -45 31 -45 18z" fill="#163a67"/>
<path d="M36 253 c13 -43 36 -115 50 -161 l26 -83 46 3 47 3 51 155 50 155
-39 3 c-21 2 -41 1 -43 -1 -3 -2 -17 -52 -32 -111 -15 -58 -29 -106 -32 -106
-3 0 -18 49 -34 110 l-29 110 -43 0 -42 0 24 -77z" fill="#163a67"/>
<path d="M550 169 l0 -160 38 3 37 3 3 158 3 157 -41 0 -40 0 0 -161z"/>
<path d="M660 170 l0 -160 40 0 40 0 0 45 c0 25 5 45 10 45 6 0 23 -20 38 -45
25 -42 30 -45 69 -45 24 0 43 2 43 5 0 2 -20 35 -44 72 l-44 68 36 40 37 40
-39 3 c-32 3 -44 -2 -72 -29 l-34 -33 0 77 0 77 -40 0 -40 0 0 -160z"/>
<path d="M920 300 c0 -28 3 -30 35 -30 32 0 35 2 35 30 0 28 -3 30 -35 30 -32
0 -35 -2 -35 -30z" fill="#163a67"/>
<path d="M1420 300 c0 -28 3 -30 35 -30 32 0 35 2 35 30 0 28 -3 30 -35 30
-32 0 -35 -2 -35 -30z" fill="#163a67"/>
<path d="M328 235 c-16 -9 -28 -20 -28 -25 0 -4 -3 -15 -6 -24 -5 -13 1 -16
29 -16 19 0 40 7 47 15 16 19 56 19 64 0 6 -18 -22 -35 -59 -35 -39 0 -84 -27
-91 -54 -6 -24 10 -65 30 -78 17 -12 75 -9 99 3 16 9 22 9 25 0 2 -6 19 -11
38 -11 l34 0 0 94 c0 121 -11 138 -96 143 -40 2 -68 -2 -86 -12z m108 -131
c-3 -9 -6 -20 -6 -24 0 -15 -37 -31 -54 -24 -26 10 -19 41 12 52 41 15 55 14
48 -4z" fill="#163a67"/>
<path d="M1122 234 c-12 -8 -22 -10 -22 -5 0 6 -16 11 -35 11 l-35 0 0 -115 0
-115 34 0 33 0 5 81 c5 82 15 102 48 96 12 -2 16 -21 18 -90 l3 -88 37 3 37 3
3 77 c3 79 16 106 46 95 11 -5 16 -27 18 -89 l3 -83 38 -3 39 -3 -4 101 c-3
93 -5 103 -27 121 -28 23 -69 24 -99 3 -20 -14 -24 -14 -44 0 -12 9 -34 16
-48 16 -14 0 -36 -7 -48 -16z" fill="#163a67"/>
<path d="M1549 220 c-17 -16 -28 -34 -24 -40 9 -15 61 -12 75 5 15 18 56 20
66 3 10 -16 -24 -38 -58 -38 -112 0 -130 -130 -20 -138 23 -2 50 2 62 8 13 7
20 7 20 0 0 -5 17 -10 38 -10 l37 0 -5 101 c-6 123 -18 139 -107 139 -47 0
-59 -4 -84 -30z m121 -109 c0 -35 -36 -66 -64 -55 -29 11 -19 43 17 53 43 12
47 13 47 2z" fill="#163a67" />
<path d="M920 125 l0 -115 35 0 35 0 0 115 0 115 -35 0 -35 0 0 -115z" fill="#163a67"/>
<path d="M1420 125 l0 -115 35 0 35 0 0 115 0 115 -35 0 -35 0 0 -115z" fill="#163a67"/>
</g>
</svg>
